:FULLY-SPECIFIED
:FORCE-ALL-JOINTS-BE-3DOF
:DEGREES
68
root -2.86968 17.1709 -18.0628 -1.37359 -4.54167 4.59336
lfemur -7.61144 -3.60955 -28.1678
ltibia 41.0717 0 0
lfoot -7.69257 -8.53053 -0.932176
ltoes 3.98305 0 0
rfemur -28.464 0.285659 17.3994
rtibia 50.8785 0 0
rfoot -8.88981 -2.098 0.103993
rtoes -1.18519 0 0
lowerback 7.28014 -0.921014 -4.5837
upperback -0.277916 -1.56868 1.3123
thorax -4.20573 -0.664883 4.11175
lowerneck -14.5032 -2.85501 -10.4913
upperneck 23.17 -2.48265 4.40684
head 9.96561 -1.58176 2.99265
lclavicle 2.58532e-14 -3.73715e-15 2.10272e-30
lhumerus -30.6046 8.24946 84.2146
lradius 27.2245 0 0
lwrist -6.31135 0 0
lhand -16.2973 26.3384 -0.00810772
lfingers 7.12502 0 0
lthumb 9.91334 56.084 -0.00798349
rclavicle 2.58532e-14 -3.73715e-15 2.10272e-30
rhumerus -38.5518 -15.5189 -75.5109
rradius 33.6671 0 0
rwrist 5.75277 0 0
rhand -13.2416 14.3051 0.0205582
rfingers 7.12502 0 0
rthumb 12.8591 -15.2583 0.0243942
69
root -2.88607 17.1755 -17.8423 -1.24895 -4.75757 4.62455
lfemur -7.31678 -3.36936 -28.2482
ltibia 41.0106 0 0
lfoot -8.96959 -8.17403 -0.821046
ltoes 2.0367 0 0
rfemur -28.6951 0.791641 17.3516
rtibia 48.9726 0 0
rfoot -8.61117 -2.29076 0.101993
rtoes 0.343899 0 0
lowerback 7.27096 -0.964608 -4.65914
upperback -0.346258 -1.63523 1.30839
thorax -4.26921 -0.692682 4.15519
lowerneck -14.234 -2.77018 -10.4456
upperneck 23.0728 -2.41643 4.44698
head 9.87188 -1.54326 3.00739
lclavicle -3.61541e-15 1.66979e-14 1.58047e-30
lhumerus -30.6112 7.86088 84.203
lradius 27.8107 0 0
lwrist -6.25712 0 0
lhand -16.1092 25.9156 -0.00484057
lfingers 7.12502 0 0
lthumb 10.0947 55.6514 -0.00498331
rclavicle -3.61541e-15 1.66979e-14 1.58047e-30
rhumerus -39.0437 -14.8926 -75.6288
rradius 34.1532 0 0
rwrist 5.53238 0 0
rhand -13.2249 14.2119 0.0137856
rfingers 7.12502 0 0
rthumb 12.8755 -15.3543 0.0169792
70
root -2.90422 17.1792 -17.6223 -0.97484 -5.128 4.60907
lfemur -7.29414 -3.16506 -28.312
ltibia 40.8653 0 0
lfoot -10.0072 -7.30967 -0.651342
ltoes 2.40786 0 0
rfemur -28.9016 1.50104 17.327
rtibia 46.8727 0 0
rfoot -8.49116 -2.72396 0.10074
rtoes 2.39277 0 0
lowerback 7.08193 -0.934171 -4.75647
upperback -0.368801 -1.59134 1.33259
thorax -4.18693 -0.671631 4.23662
lowerneck -14.1758 -2.77491 -10.4395
upperneck 22.9278 -2.44434 4.50085
head 9.81135 -1.54689 3.01955
lclavicle -1.73166e-14 6.2816e-15 2.07797e-31
lhumerus -30.4231 7.48037 84.2416
lradius 28.4629 0 0
lwrist -5.92717 0 0
lhand -16.0852 25.1596 0.0122424
lfingers 7.12502 0 0
lthumb 10.1178 54.893 0.0112836
rclavicle -1.73166e-14 6.2816e-15 2.07797e-31
rhumerus -39.3613 -14.5711 -75.6536
rradius 34.5174 0 0
rwrist 5.15878 0 0
rhand -13.5952 13.8355 -0.00290852
rfingers 7.12502 0 0
rthumb 12.5191 -15.7635 -0.00154537
71
root -2.92316 17.1678 -17.4024 -0.694736 -5.63918 4.6827
lfemur -7.27728 -2.8899 -28.4986
ltibia 40.6529 0 0
lfoot -10.6498 -6.68084 -0.557934
ltoes 2.5886 0 0
rfemur -29.0357 2.42671 17.1442
rtibia 44.5838 0 0
rfoot -8.2016 -3.11097 0.0869146
rtoes 3.21383 0 0
lowerback 7.02282 -0.862698 -4.97779
upperback -0.51969 -1.51306 1.36214
thorax -4.31807 -0.620568 4.38876
lowerneck -14.0537 -2.7933 -10.4542
upperneck 22.8884 -2.46902 4.44479
head 9.7766 -1.56637 2.998
lclavicle 1.16451e-14 -1.67774e-14 4.01311e-31
lhumerus -30.3906 7.11345 84.2888
lradius 29.1237 0 0
lwrist -5.35352 0 0
lhand -15.8289 26.8198 -0.000504897
lfingers 7.12502 0 0
lthumb 10.3651 56.5422 -0.000839787
rclavicle 1.16451e-14 -1.67774e-14 4.01311e-31
rhumerus -39.8213 -14.2996 -75.5232
rradius 34.8275 0 0
rwrist 5.10615 0 0
rhand -14.0829 13.241 -0.00425853
rfingers 7.12502 0 0
rthumb 12.0491 -16.3897 -0.00361337
